# Blender v2.76 (sub 0) OBJ File: 'dojo.blend'
# www.blender.org
mtllib dojo grass.mtl
o land_Plane.007
v -2.301325 0.000000 2.301325
v 2.301325 0.000000 2.301325
v -2.301325 0.000000 -2.301325
v 2.301325 0.000000 -2.301325
v -2.301325 -0.517650 2.301325
v 2.301325 -0.517650 2.301325
v -2.301325 -0.517650 -2.301325
v 2.301325 -0.517650 -2.301325
vt 0.115137 0.132387
vt 0.917721 0.132387
vt 0.917721 0.934972
vt 0.115137 0.934972
vt 0.685539 0.111744
vt 0.685539 0.046617
vt 0.106466 0.046617
vt 0.106466 0.111744
vt 0.351188 0.111744
vt 0.351188 0.046617
vt 0.930262 0.046617
vt 0.930262 0.111744
vn 0.000000 1.000000 0.000000
vn 0.000000 0.000000 -1.000000
vn 1.000000 0.000000 0.000000
vn 0.000000 0.000000 1.000000
vn -1.000000 0.000000 0.000000
usemtl Material
s off
f 1/1/1 2/2/1 4/3/1 3/4/1
f 4/5/2 8/6/2 7/7/2 3/8/2
f 2/9/3 6/10/3 8/11/3 4/12/3
f 1/8/4 5/7/4 6/6/4 2/5/4
f 3/12/5 7/11/5 5/10/5 1/9/5
